<svg enable-background="new 0 0 195 74" height="74" viewBox="0 0 195 74" width="195" xmlns="http://www.w3.org/2000/svg">
										<path class="logo-text" d="m69.9 32.95h-.1l-5.36-21.51h-6.37l-5.37 21.51h-.1l-4.96-21.51h-6.68l8.4 30.17h6.27l5.56-20.66h.1l5.57 20.66h6.32l8.4-30.17h-6.68zm117.54-21.52v12.1h-12.29v-12.1h-6.27v30.17h6.27v-12.86h12.29v12.86h6.33v-30.17zm-77.92 5.11h9v25.06h6.22v-25.06h9.01v-5.11h-24.23zm-17.3 12.81 3.44-12h.1l3.39 12zm-.05-17.92-9.72 30.17h6.27l2.18-7.59h9.56l2.12 7.59h6.68l-9.66-30.17zm58.13-.36c-7.99 0-12.7 5.16-12.7 13.77v3.39c0 8.71 4.71 13.72 12.65 13.72 7.99 0 11.99-4.86 11.99-10.33v-.56h-6.02c0 3.14-1.52 5.57-5.87 5.57-4.3 0-6.42-2.68-6.42-8.41v-3.39c0-5.67 2.12-8.5 6.42-8.5 4 0 5.87 2.63 5.87 5.62h6.02v-.3c0-5.87-4.5-10.58-11.94-10.58" fill="#fff"></path>
										<path class="logo-text" d="m26.1 10.93c-3.38-.25-6.26 1.89-7.86 1.89-1.63 0-4.13-1.84-6.79-1.79-3.49.05-6.7 2.03-8.5 5.15-3.62 6.29-.92 15.61 2.61 20.72 1.73 2.49 3.79 5.3 6.49 5.2 2.6-.1 3.59-1.68 6.74-1.68s4.03 1.68 6.79 1.63c2.8-.05 4.58-2.55 6.29-5.05 1.98-2.89 2.8-5.7 2.85-5.85-.06-.02-5.46-2.1-5.52-8.32-.05-5.2 4.25-7.7 4.44-7.82-2.44-3.58-6.21-3.98-7.54-4.08" fill="#fff"></path>
										<path class="logo-text" d="m24.02 7.56c1.44-1.74 2.4-4.16 2.14-6.56-2.07.08-4.57 1.38-6.05 3.11-1.33 1.54-2.5 4-2.18 6.36 2.3.18 4.65-1.17 6.09-2.91" fill="#fff"></path>
										<g fill="#f56900">
											<path d="m78.75 67.71v-8.75h2.72v9.12c0 2.92-2.1 4.91-5.56 4.91-3.47 0-5.57-2-5.57-4.91v-9.12h2.72v8.75c0 1.9 1.13 2.97 2.85 2.97 1.7 0 2.84-1.08 2.84-2.97z"></path>
											<path d="m95.38 72.74h-8.57v-13.77h2.72v11.45h5.84v2.32z"></path>
											<path d="m101.16 72.74v-11.5h-3.92v-2.28h10.55v2.28h-3.91v11.49h-2.72z"></path>
											<path d="m122.32 63.32c0 2.26-1.46 3.45-2.51 3.86l2.77 5.55h-3.05l-2.41-5.13h-2.45v5.13h-2.68v-13.76h5.5c3.26 0 4.83 1.92 4.83 4.35zm-5.27 2.23c1.53 0 2.45-.76 2.45-2.18 0-1.51-1.01-2.27-2.41-2.27h-2.42v4.45z"></path>
											<path d="m125.96 72.74 4.62-13.77h3.2l4.59 13.77h-2.89l-1.08-3.54h-4.59l-1.09 3.54zm6.09-11.14-1.69 5.57h3.48l-1.68-5.57z"></path>
										</g>
										<path d="m0 0h195v74h-195z" fill="none"></path>
									</svg>